# xmcd
#
# Track frame offsets: 
#        150
#        13625
#        27475
#        42722
#        56380
#        74072
#        92187
#        106355
#        120162
#        142342
#        169460
#
# Disc length: 2525 seconds
#
# Revision: 0
# Processed by: cddbd v1.5.2PL0 Copyright (c) Steve Scherf et al.
# Submitted via: ExactAudioCopy v0.99pb5
#
DISCID=a409db0b
DTITLE=Big JoeTurner - Shoutin' The Blues
DYEAR=1994
DGENRE=Blues
TTITLE0=Shake, Rattle and Roll
TTITLE1=T.V. Mama
TTITLE2=Honey Hush
TTITLE3=Piney Brown Blues
TTITLE4=Roll 'em Pete
TTITLE5=Cherry Red
TTITLE6=Corrine Corrina
TTITLE7=Chains Of Love
TTITLE8=Wee Baby Blues
TTITLE9=Stormy Monday Blues
TTITLE10=Squeeze Me, Baby
EXTD=
EXTT0=
EXTT1=
EXTT2=
EXTT3=
EXTT4=
EXTT5=
EXTT6=
EXTT7=
EXTT8=
EXTT9=
EXTT10=
PLAYORDER=
